<svg width="237" height="54" viewBox="0 0 237 54" fill="none" xmlns="http://www.w3.org/2000/svg">
<path d="M33.9412 4.53389L13.314 23.3842C13.314 23.3842 7.82958 38.3066 18.7984 46.1607C29.7672 54.0147 39.0681 51.2105 40.7377 50.3122C42.4073 49.414 55.0457 43.6929 55.6428 36.6228C56.2398 29.5544 56.3772 23.9676 55.2359 22.834C54.0947 21.7003 33.943 4.53223 33.943 4.53223L33.9412 4.53389Z" fill="#02696A"/>
<path d="M34.2015 41.6425C41.1922 41.6425 46.8593 36.3098 46.8593 29.7314C46.8593 23.1531 41.1922 17.8203 34.2015 17.8203C27.2108 17.8203 21.5437 23.1531 21.5437 29.7314C21.5437 36.3098 27.2108 41.6425 34.2015 41.6425Z" stroke="white" stroke-width="3.97755" stroke-miterlimit="10" stroke-linecap="round"/>
<path d="M33.9976 2.9209L2 33.0326" stroke="#02696A" stroke-width="3.97755" stroke-miterlimit="10" stroke-linecap="round"/>
<path d="M66.8192 33.7355L34.1594 3.00391" stroke="#02696A" stroke-width="3.97755" stroke-miterlimit="10" stroke-linecap="round"/>
<path d="M55.2344 22.8371C56.0816 25.0596 56.543 27.4577 56.543 29.957C56.543 41.6261 46.4918 51.0877 34.0894 51.0877C21.687 51.0877 11.634 41.6261 11.634 29.957C11.634 27.3997 12.1184 24.9486 13.0025 22.6797" stroke="#02696A" stroke-width="3.97755" stroke-miterlimit="10" stroke-linecap="round"/>
<path d="M57.8003 50.7069L46.134 39.7305" stroke="white" stroke-width="3.97755" stroke-miterlimit="10" stroke-linecap="round"/>
<path d="M33.1366 25.4717H30.4156C29.9419 25.4717 29.5579 25.833 29.5579 26.2788V28.8393C29.5579 29.2851 29.9419 29.6465 30.4156 29.6465H33.1366C33.6103 29.6465 33.9943 29.2851 33.9943 28.8393V26.2788C33.9943 25.833 33.6103 25.4717 33.1366 25.4717Z" fill="#ED7861"/>
<path d="M38.6332 25.4717H35.9121C35.4385 25.4717 35.0544 25.833 35.0544 26.2788V28.8393C35.0544 29.2851 35.4385 29.6465 35.9121 29.6465H38.6332C39.1069 29.6465 39.4909 29.2851 39.4909 28.8393V26.2788C39.4909 25.833 39.1069 25.4717 38.6332 25.4717Z" fill="#ED7861"/>
<path d="M33.1366 30.7412H30.4156C29.9419 30.7412 29.5579 31.1026 29.5579 31.5483V34.1089C29.5579 34.5546 29.9419 34.916 30.4156 34.916H33.1366C33.6103 34.916 33.9943 34.5546 33.9943 34.1089V31.5483C33.9943 31.1026 33.6103 30.7412 33.1366 30.7412Z" fill="#ED7861"/>
<path d="M38.6332 30.7412H35.9121C35.4385 30.7412 35.0544 31.1026 35.0544 31.5483V34.1089C35.0544 34.5546 35.4385 34.916 35.9121 34.916H38.6332C39.1069 34.916 39.4909 34.5546 39.4909 34.1089V31.5483C39.4909 31.1026 39.1069 30.7412 38.6332 30.7412Z" fill="#ED7861"/>
<path d="M77.2157 19.5782C77.2157 17.429 77.8298 15.7557 79.0579 14.5583C80.3167 13.3609 82.0514 12.7622 84.262 12.7622H92.4596C97.0343 12.7622 100.488 13.6526 102.822 15.4333C105.155 17.2141 106.322 19.8699 106.322 23.4007C106.322 26.6858 105.339 29.2495 103.374 31.0917C101.44 32.9338 98.8304 33.8549 95.5452 33.8549L102.545 40.8091C103.098 41.3617 103.374 41.9911 103.374 42.6973C103.374 43.4342 103.052 44.0789 102.407 44.6316C101.732 45.1535 101.072 45.4145 100.427 45.4145C99.5366 45.4145 98.723 45.0154 97.9861 44.2171L88.0384 34.0391H83.3409V42.6973C83.3409 43.557 83.0493 44.2324 82.4659 44.7237C81.8826 45.2149 81.1457 45.4605 80.2553 45.4605C79.3342 45.4605 78.5974 45.2149 78.0447 44.7237C77.4921 44.2324 77.2157 43.557 77.2157 42.6973V19.5782ZM92.2754 29.2956C94.3018 29.2956 95.883 29.096 97.019 28.6969C98.155 28.2977 98.9532 27.6837 99.4138 26.8547C99.905 25.995 100.151 24.8437 100.151 23.4007C100.151 21.3129 99.5059 19.8084 98.2164 18.8874C96.9576 17.9663 94.9772 17.5057 92.2754 17.5057H85.3213C84.7072 17.5057 84.216 17.7053 83.8475 18.1044C83.5098 18.5036 83.3409 19.0562 83.3409 19.7624V29.2956H92.2754ZM121.98 45.4605C119.339 45.4605 117.036 44.9846 115.071 44.0329C113.106 43.0811 111.587 41.7455 110.512 40.0262C109.468 38.2761 108.946 36.2344 108.946 33.901C108.946 30.1245 110.036 27.1924 112.216 25.1047C114.427 23.0169 117.528 21.973 121.519 21.973C123.975 21.973 126.14 22.3568 128.013 23.1243C129.916 23.8919 131.39 24.9665 132.434 26.3481C133.508 27.699 134.046 29.2495 134.046 30.9996C134.046 32.4733 133.57 33.6093 132.618 34.4076C131.697 35.2058 130.377 35.605 128.657 35.605H114.795C114.795 37.3243 115.394 38.6292 116.591 39.5196C117.819 40.3792 119.615 40.8091 121.98 40.8091C124.466 40.8091 126.585 40.2564 128.335 39.1511C129.317 38.5371 130.085 38.2301 130.638 38.2301C131.16 38.2301 131.666 38.4757 132.157 38.9669C132.679 39.4889 132.94 40.0569 132.94 40.6709C132.94 41.4078 132.633 41.9911 132.019 42.421C130.73 43.4035 129.225 44.1557 127.506 44.6776C125.787 45.1996 123.945 45.4605 121.98 45.4605ZM126.815 31.368C127.337 31.368 127.706 31.2759 127.921 31.0917C128.135 30.8768 128.243 30.539 128.243 30.0785C128.243 29.0039 127.629 28.1596 126.401 27.5455C125.203 26.9315 123.576 26.6244 121.519 26.6244C119.462 26.6244 117.835 27.0543 116.637 27.914C115.471 28.7736 114.887 29.925 114.887 31.368H126.815ZM140.824 45.4605C139.872 45.4605 139.136 45.2149 138.614 44.7237C138.092 44.2324 137.831 43.557 137.831 42.6973V24.7362C137.831 23.8458 138.076 23.1704 138.568 22.7098C139.09 22.2186 139.811 21.973 140.732 21.973C141.653 21.973 142.375 22.2186 142.897 22.7098C143.419 23.2011 143.68 23.8766 143.68 24.7362V26.0718C145.86 23.3393 148.838 21.973 152.614 21.973C155.562 21.973 157.88 22.9094 159.568 24.7823C161.288 26.6244 162.147 29.1421 162.147 32.3351V42.6973C162.147 43.557 161.871 44.2324 161.318 44.7237C160.766 45.2149 160.029 45.4605 159.108 45.4605C158.156 45.4605 157.419 45.2149 156.897 44.7237C156.375 44.2324 156.114 43.557 156.114 42.6973V32.3351C156.114 30.5851 155.684 29.2188 154.825 28.2363C153.965 27.2538 152.768 26.7626 151.232 26.7626C148.899 26.7626 147.088 27.4534 145.798 28.835C144.509 30.186 143.864 32.0895 143.864 34.5457V42.6973C143.864 43.557 143.588 44.2324 143.035 44.7237C142.482 45.2149 141.745 45.4605 140.824 45.4605ZM184.955 39.059C185.446 39.4582 185.692 39.9494 185.692 40.5328C185.692 41.1161 185.477 41.7148 185.047 42.3289C184.371 43.3114 183.42 44.0789 182.192 44.6316C180.963 45.1842 179.582 45.4605 178.047 45.4605C175.591 45.4605 173.656 44.8004 172.244 43.4802C170.862 42.1293 170.171 40.2871 170.171 37.9537V27.1771H168.283C167.362 27.1771 166.625 26.9622 166.073 26.5323C165.52 26.1025 165.244 25.5345 165.244 24.8283C165.244 24.0915 165.505 23.5081 166.027 23.0783C166.579 22.6484 167.331 22.4335 168.283 22.4335H170.171V15.4794C170.171 14.6197 170.448 13.9442 171 13.453C171.553 12.9617 172.29 12.7161 173.211 12.7161C174.163 12.7161 174.9 12.9617 175.422 13.453C175.944 13.9442 176.205 14.6197 176.205 15.4794V22.4335H180.626C181.578 22.4335 182.314 22.6484 182.836 23.0783C183.389 23.5081 183.665 24.0915 183.665 24.8283C183.665 25.5345 183.389 26.1025 182.836 26.5323C182.314 26.9622 181.578 27.1771 180.626 27.1771H176.205V38.4603C176.205 39.1358 176.404 39.6731 176.803 40.0722C177.233 40.4714 177.801 40.6709 178.507 40.6709C179.06 40.6709 179.536 40.5942 179.935 40.4407C180.365 40.2564 180.795 39.9648 181.224 39.5656C182.023 38.7981 182.76 38.4143 183.435 38.4143C183.926 38.4143 184.433 38.6292 184.955 39.059Z" fill="#02696A"/>
<path d="M206.236 45.4605C202.644 45.4605 199.543 44.7697 196.933 43.3881C194.354 41.9758 192.389 40.0262 191.038 37.5392C189.687 35.0216 189.012 32.1356 189.012 28.8811C189.012 25.6266 189.687 22.7559 191.038 20.269C192.389 17.7514 194.354 15.8017 196.933 14.4201C199.543 13.0078 202.644 12.3016 206.236 12.3016C209.828 12.3016 212.914 13.0078 215.493 14.4201C218.103 15.8017 220.083 17.7514 221.434 20.269C222.785 22.7559 223.46 25.6266 223.46 28.8811C223.46 32.1356 222.785 35.0216 221.434 37.5392C220.083 40.0262 218.103 41.9758 215.493 43.3881C212.914 44.7697 209.828 45.4605 206.236 45.4605ZM206.236 40.6249C209.736 40.6249 212.453 39.581 214.388 37.4932C216.322 35.3747 217.289 32.504 217.289 28.8811C217.289 25.2275 216.276 22.3568 214.25 20.269C212.254 18.1812 209.429 17.1373 205.776 17.1373C202.429 17.1373 199.819 18.2119 197.946 20.3611C196.104 22.4796 195.183 25.3196 195.183 28.8811C195.183 32.504 196.15 35.3747 198.085 37.4932C200.019 39.581 202.736 40.6249 206.236 40.6249Z" fill="#ED7861"/>
</svg>
